<?xml version="1.0" encoding="UTF-8" standalone="no"?><!DOCTYPE svg PUBLIC "-//W3C//DTD SVG 1.1//EN" "http://www.w3.org/Graphics/SVG/1.1/DTD/svg11.dtd"><svg width="100%" height="100%" viewBox="0 0 500 500" version="1.1" xmlns="http://www.w3.org/2000/svg" xmlns:xlink="http://www.w3.org/1999/xlink" xml:space="preserve" xmlns:serif="http://www.serif.com/" style="fill-rule:evenodd;clip-rule:evenodd;stroke-linejoin:round;stroke-miterlimit:2;"><path d="M250,493.9c134.705,-0 243.905,-109.195 243.905,-243.9c0,-134.705 -109.2,-243.9 -243.905,-243.9c-134.705,-0 -243.905,109.195 -243.905,243.9c0,134.705 109.2,243.9 243.905,243.9Zm76.09,-374.18l-36.675,130.28l65,-0c13.64,-0 15.63,17.95 2.985,26.955l-162.765,115.955c-11.66,8.31 -24.43,0.53 -20.725,-12.625l30.005,-106.6l68.065,-24.015l-83.53,-0l0,0.33l-42.865,-0c-13.64,-0 -15.63,-17.95 -2.985,-26.955l162.765,-115.955c11.66,-8.31 24.43,-0.53 20.725,12.63Z" style="fill:#f15757;"/></svg>